<svg width="20" height="20" viewBox="0 0 20 20" fill="none" xmlns="http://www.w3.org/2000/svg">
<g clip-path="url(#clip0_1854_3060)">
<mask id="mask0_1854_3060" style="mask-type:luminance" maskUnits="userSpaceOnUse" x="0" y="0" width="20" height="20">
<path d="M15.8333 0H4.16667C1.86548 0 0 1.86548 0 4.16667V15.8333C0 18.1345 1.86548 20 4.16667 20H15.8333C18.1345 20 20 18.1345 20 15.8333V4.16667C20 1.86548 18.1345 0 15.8333 0Z" fill="white"/>
</mask>
<g mask="url(#mask0_1854_3060)">
<path d="M15.8333 0H4.16667C1.86548 0 0 1.86548 0 4.16667V15.8333C0 18.1345 1.86548 20 4.16667 20H15.8333C18.1345 20 20 18.1345 20 15.8333V4.16667C20 1.86548 18.1345 0 15.8333 0Z" fill="white"/>
<path fill-rule="evenodd" clip-rule="evenodd" d="M9.00178 6.1469L9.5017 3.36152C11.7346 5.99484 10.5848 8.3929 10.3179 8.94957C10.3033 8.98002 10.2914 9.00498 10.2827 9.02415L9.00178 6.1469ZM10.1749 14.5597L12.9809 14.3419C14.3376 14.2231 15.644 12.8254 15.8359 11.7368L14.2226 11.4524C13.6668 11.3397 12.9284 10.9764 12.5291 10.5739C12.3244 10.3669 12.1214 10.1909 11.8708 10.0491C11.6205 9.90727 11.3225 9.79986 10.9276 9.73007L9.93274 9.55469L7.17741 3.36616C5.12849 5.67669 6.14732 8.62344 7.6764 9.74694L5.87549 20H13.9975L12.4695 16.5686C12.036 15.5952 11.1972 14.8606 10.1749 14.5597ZM11.218 10.9177C11.4062 10.9364 11.5583 11.0886 11.5771 11.2768C11.6023 11.5312 11.3906 11.7433 11.136 11.7183C10.9476 11.6997 10.7951 11.5474 10.7765 11.3588C10.7515 11.1042 10.9636 10.8925 11.218 10.9177Z" fill="#1D2327"/>
</g>
</g>
<defs>
<clipPath id="clip0_1854_3060">
<rect width="20" height="20" fill="white"/>
</clipPath>
</defs>
</svg>
